<svg xmlns="http://www.w3.org/2000/svg" xmlns:xlink="http://www.w3.org/1999/xlink" xmlns:svgjs="http://svgjs.com/svgjs" width="512" height="512" x="0" y="0" viewBox="0 0 512 512" style="enable-background:new 0 0 512 512" xml:space="preserve" class=""><g>
<g xmlns="http://www.w3.org/2000/svg">
	<g>
		<path d="M256,0C131.935,0,31,100.935,31,225c0,13.749,0,120.108,0,122c0,24.813,20.187,45,45,45h17.58    c6.192,17.458,22.865,30,42.42,30c24.813,0,45-20.187,45-45V255c0-24.813-20.187-45-45-45c-19.555,0-36.228,12.542-42.42,30H76    c-5.259,0-10.305,0.915-15,2.58V225c0-107.523,87.477-195,195-195s195,87.477,195,195v17.58c-4.695-1.665-9.741-2.58-15-2.58    h-17.58c-6.192-17.458-22.865-30-42.42-30c-24.813,0-45,20.187-45,45v122c0,24.813,20.187,45,45,45    c4.541,0,8.925-0.682,13.061-1.939C383.45,438.523,366.272,452,346,452h-47.58c-6.192-17.458-22.865-30-42.42-30    c-24.813,0-45,20.187-45,45s20.187,45,45,45c19.555,0,36.228-12.542,42.42-30H346c41.355,0,75-33.645,75-75v-15h15    c24.813,0,45-20.187,45-45c0-1.864,0-108.262,0-122C481,100.935,380.065,0,256,0z M121,255c0-8.271,6.729-15,15-15s15,6.729,15,15    v122c0,8.271-6.729,15-15,15s-15-6.729-15-15V255z M76,270h15v92H76c-8.271,0-15-6.729-15-15v-62C61,276.729,67.729,270,76,270z     M256,482c-8.271,0-15-6.729-15-15s6.729-15,15-15s15,6.729,15,15S264.271,482,256,482z M391,377c0,8.271-6.729,15-15,15    s-15-6.729-15-15V255c0-8.271,6.729-15,15-15s15,6.729,15,15V377z M451,347c0,8.271-6.729,15-15,15h-15v-92h15    c8.271,0,15,6.729,15,15V347z" fill="#fe696a" data-original="#000000" style="" class=""></path>
	</g>
</g>
<g xmlns="http://www.w3.org/2000/svg">
</g>
<g xmlns="http://www.w3.org/2000/svg">
</g>
<g xmlns="http://www.w3.org/2000/svg">
</g>
<g xmlns="http://www.w3.org/2000/svg">
</g>
<g xmlns="http://www.w3.org/2000/svg">
</g>
<g xmlns="http://www.w3.org/2000/svg">
</g>
<g xmlns="http://www.w3.org/2000/svg">
</g>
<g xmlns="http://www.w3.org/2000/svg">
</g>
<g xmlns="http://www.w3.org/2000/svg">
</g>
<g xmlns="http://www.w3.org/2000/svg">
</g>
<g xmlns="http://www.w3.org/2000/svg">
</g>
<g xmlns="http://www.w3.org/2000/svg">
</g>
<g xmlns="http://www.w3.org/2000/svg">
</g>
<g xmlns="http://www.w3.org/2000/svg">
</g>
<g xmlns="http://www.w3.org/2000/svg">
</g>
</g></svg>