<svg xmlns="http://www.w3.org/2000/svg" xmlns:xlink="http://www.w3.org/1999/xlink" width="70" height="70" preserveAspectRatio="xMidYMid meet" viewBox="0 0 256 256" style="-ms-transform: rotate(360deg); -webkit-transform: rotate(360deg); transform: rotate(360deg);"><path d="M168 236a3.99 3.99 0 0 1-.784-.078L128 228.08l-39.216 7.843A4 4 0 0 1 84 232v-24a4.002 4.002 0 0 1 1.172-2.829L100 190.343V156.88l-75.216 15.043A4 4 0 0 1 20 168v-24a4.001 4.001 0 0 1 2.21-3.578l77.795-38.897l.107-53.533a28 28 0 0 1 56 .008l.109 53.525l77.794 38.897a4.001 4.001 0 0 1 2.21 3.578v24a4 4 0 0 1-4.784 3.922l-75.215-15.043v33.48l14.623 14.833A4 4 0 0 1 172 208v24a4 4 0 0 1-4 4zm-40-16a3.998 3.998 0 0 1 .784.078L164 227.12v-17.48l-14.623-14.833a4 4 0 0 1-1.151-2.808v-40a4 4 0 0 1 4.784-3.922l75.216 15.043v-16.649l-77.79-38.894a4 4 0 0 1-2.21-3.57l-.114-56a20 20 0 1 0-40-.008L108 104.008a4 4 0 0 1-2.21 3.57L28 146.472v16.649l75.216-15.043A4 4 0 0 1 108 152v40a4.002 4.002 0 0 1-1.172 2.829L92 209.657v17.464l35.216-7.043A3.998 3.998 0 0 1 128 220z" fill="#FFFFFF"></path><rect x="0" y="0" width="256" height="256" fill="rgba(0, 0, 0, 0)"></rect></svg>