<svg xmlns="http://www.w3.org/2000/svg" xmlns:xlink="http://www.w3.org/1999/xlink" width="70" height="70" preserveAspectRatio="xMidYMid meet" viewBox="0 0 256 256" style="-ms-transform: rotate(360deg); -webkit-transform: rotate(360deg); transform: rotate(360deg);"><path d="M216.008 66H174V56a22.025 22.025 0 0 0-22-22h-48a22.025 22.025 0 0 0-22 22v10H40.008a14.016 14.016 0 0 0-14 14v128a14.016 14.016 0 0 0 14 14h176a14.016 14.016 0 0 0 14-14V80a14.016 14.016 0 0 0-14-14zM94 56a10.012 10.012 0 0 1 10-10h48a10.012 10.012 0 0 1 10 10v10H94zM40.008 78h176a2.003 2.003 0 0 1 2 2v42.783A185.975 185.975 0 0 1 128 146a185.975 185.975 0 0 1-89.992-23.209V80a2.003 2.003 0 0 1 2-2zm176 132h-176a2.003 2.003 0 0 1-2-2v-71.62A198.114 198.114 0 0 0 128 158a198.115 198.115 0 0 0 90.008-21.628V208a2.003 2.003 0 0 1-2 2zM110 120a6 6 0 0 1 6-6h24a6 6 0 0 1 0 12h-24a6 6 0 0 1-6-6z" fill="#FFFFFF"></path><rect x="0" y="0" width="256" height="256" fill="rgba(0, 0, 0, 0)"></rect></svg>