<svg xmlns="http://www.w3.org/2000/svg" id="Icons" height="512" viewBox="0 0 74 74" width="512"><path d="m27.441 6.18a1 1 0 0 1 -.436-1.9 22.032 22.032 0 0 1 2.882-1.153 1 1 0 1 1 .607 1.906 19.824 19.824 0 0 0 -2.618 1.048 1.011 1.011 0 0 1 -.435.099z"></path><path d="m47.63 55.66h-21.26a1 1 0 0 1 -1-1v-.95c0-5.713-1.578-7.653-4.724-11.518-.646-.792-1.346-1.659-2.108-2.641a23.132 23.132 0 0 1 -4.848-14.523 22.6 22.6 0 0 1 1.174-6.928 1 1 0 0 1 1.956.283 1.054 1.054 0 0 1 -.052.33 20.58 20.58 0 0 0 -1.078 6.343 21.151 21.151 0 0 0 4.432 13.274c.746.966 1.44 1.817 2.076 2.6 3.217 3.953 5.162 6.342 5.172 12.73h19.26c.01-6.351 1.942-8.733 5.139-12.672.669-.824 1.4-1.725 2.186-2.755a21.314 21.314 0 0 0 -16.247-34.213 1 1 0 0 1 .031-2h.033a23.314 23.314 0 0 1 17.773 37.426c-.8 1.049-1.543 1.964-2.223 2.8-3.122 3.854-4.692 5.785-4.692 11.464v.95a1 1 0 0 1 -1 1z"></path><path d="m19.6 12.43a1 1 0 0 1 -.776-1.63 25.572 25.572 0 0 1 2.155-2.352 1 1 0 1 1 1.384 1.444 23.626 23.626 0 0 0 -1.986 2.168 1 1 0 0 1 -.777.37z"></path><path d="m50.968 62.039h-27.936a1.909 1.909 0 0 1 -1.907-1.908v-4.559a1.909 1.909 0 0 1 1.907-1.908h27.936a1.909 1.909 0 0 1 1.907 1.908v4.559a1.909 1.909 0 0 1 -1.907 1.908zm-27.843-2h27.75v-4.375h-27.75z"></path><path d="m43.176 72h-12.352a3.55 3.55 0 0 1 -3.546-3.545v-7.416a1 1 0 0 1 1-1h17.444a1 1 0 0 1 1 1v7.416a3.55 3.55 0 0 1 -3.546 3.545zm-13.9-9.961v6.416a1.547 1.547 0 0 0 1.548 1.545h12.352a1.547 1.547 0 0 0 1.546-1.545v-6.416z"></path><path d="m50.409 66.688h-4.686a1 1 0 0 1 0-2h4.686a1 1 0 1 1 0 2z"></path><path d="m28.277 66.688h-4.686a1 1 0 1 1 0-2h4.686a1 1 0 0 1 0 2z"></path><path d="m44.177 31.875a1 1 0 0 1 -.654-1.757l5.417-4.68-5.417-4.681a1 1 0 0 1 1.307-1.514l6.293 5.438a1 1 0 0 1 0 1.513l-6.293 5.438a.994.994 0 0 1 -.653.243z"></path><path d="m29.823 31.875a.994.994 0 0 1 -.653-.243l-6.293-5.438a1 1 0 0 1 0-1.513l6.293-5.438a1 1 0 0 1 1.307 1.514l-5.417 4.681 5.417 4.68a1 1 0 0 1 -.654 1.757z"></path><path d="m33.688 37.375a1.016 1.016 0 0 1 -.291-.043 1 1 0 0 1 -.667-1.247l6.625-21.875a1 1 0 0 1 1.915.58l-6.625 21.875a1 1 0 0 1 -.957.71z"></path></svg>