<svg xmlns="http://www.w3.org/2000/svg" xmlns:xlink="http://www.w3.org/1999/xlink" id="Capa_1" x="0px" y="0px" viewBox="0 0 512.001 512.001" style="enable-background:new 0 0 512.001 512.001;" xml:space="preserve">
<g>
	<g>
		<path d="M191.289,162.11c-1.86-1.859-4.44-2.93-7.07-2.93s-5.21,1.07-7.07,2.93c-1.86,1.86-2.93,4.44-2.93,7.07    c0,2.63,1.07,5.21,2.93,7.07c1.86,1.859,4.44,2.93,7.07,2.93s5.21-1.07,7.07-2.93c1.86-1.86,2.93-4.431,2.93-7.07    C194.219,166.55,193.149,163.97,191.289,162.11z"></path>
	</g>
</g>
<g>
	<g>
		<path d="M408.592,295.33l-71.143-71.142c15.381-22.083,13.247-52.75-6.434-72.431c-10.703-10.703-24.934-16.598-40.07-16.598    c-11.746,0-22.939,3.564-32.369,10.156l-71.135-71.135c-2.35-2.35-5.711-3.381-8.974-2.746c-3.262,0.632-5.997,2.843-7.298,5.9    L74.088,305.344l-52.673,52.674C7.605,371.829,0,390.191,0,409.721c0,19.531,7.605,37.893,21.416,51.702    c13.81,13.811,32.172,21.416,51.702,21.416c19.531,0,37.892-7.605,51.702-21.416l8.556-8.556l56.204,56.204    c1.953,1.952,4.512,2.929,7.071,2.929c2.559,0,5.119-0.977,7.071-2.929l38.411-38.411c3.905-3.905,3.905-10.237,0-14.143    l-52.786-52.786l216.097-92.129c3.055-1.303,5.265-4.038,5.896-7.299C411.97,301.041,410.941,297.679,408.592,295.33z     M290.946,155.161c9.794,0,19.002,3.814,25.928,10.74c11.845,11.844,13.866,29.84,6.083,43.795l-49.889-49.889    C278.471,156.78,284.582,155.161,290.946,155.161z M110.677,447.28c-10.033,10.033-23.372,15.559-37.56,15.559    s-27.527-5.525-37.56-15.559C25.525,437.247,20,423.909,20,409.721c0-14.188,5.525-27.527,15.558-37.56l46.972-46.973l1.432,1.432    l73.684,73.693L110.677,447.28z M220.92,463.588l-24.27,24.268l-49.132-49.132l24.269-24.268L220.92,463.588z M344.821,315.704    c-0.18-0.213-0.364-0.424-0.564-0.624L217.588,188.411c-3.905-3.904-10.237-3.904-14.143,0c-3.905,3.905-3.905,10.237,0,14.143    l121.587,121.587l-150.923,64.344L94.375,308.75l89.395-209.955l200.213,200.212L344.821,315.704z"></path>
	</g>
</g>
<g>
	<g>
		<path d="M415.073,68.259c-3.906-3.903-10.237-3.904-14.142,0l-26.837,26.837c-3.905,3.905-3.906,10.237,0,14.143    c1.953,1.953,4.511,2.929,7.071,2.929c2.559,0,5.119-0.977,7.071-2.929l26.837-26.837    C418.978,78.496,418.979,72.164,415.073,68.259z"></path>
	</g>
</g>
<g>
	<g>
		<path d="M363.688,119.64c-1.86-1.859-4.43-2.93-7.07-2.93c-2.63,0-5.21,1.07-7.07,2.93s-2.93,4.44-2.93,7.07s1.07,5.21,2.93,7.07    c1.87,1.86,4.44,2.93,7.07,2.93s5.21-1.07,7.07-2.93c1.87-1.86,2.93-4.44,2.93-7.07S365.558,121.5,363.688,119.64z"></path>
	</g>
</g>
<g>
	<g>
		<path d="M301.349,28.58c-5.523,0-10,4.478-10,10v36.752c0,5.522,4.477,9.999,10,9.999c5.523,0,10-4.478,10-10V38.58    C311.349,33.058,306.872,28.58,301.349,28.58z"></path>
	</g>
</g>
<g>
	<g>
		<path d="M444.563,170.412h-37.981c-5.523,0-10,4.478-10,10s4.477,10,10,10h37.981c5.523,0,10-4.478,10-10    S450.086,170.412,444.563,170.412z"></path>
	</g>
</g>
<g>
	<g>
		<path d="M430.215,398.734c-16.542,0-30,13.458-30,30c0,16.542,13.458,30,30,30c16.542,0,30-13.458,30-30    C460.215,412.192,446.757,398.734,430.215,398.734z M430.215,438.733c-5.514,0-10-4.486-10-10s4.486-10,10-10s10,4.486,10,10    S435.729,438.733,430.215,438.733z"></path>
	</g>
</g>
<g>
	<g>
		<path d="M508.7,443.525l-10.785-9.742c0.125-1.683,0.188-3.369,0.188-5.05c0-1.681-0.063-3.367-0.188-5.05l10.785-9.742    c3.502-3.163,4.316-8.343,1.953-12.428l-16.679-28.837c-2.359-4.08-7.247-5.958-11.731-4.509l-13.803,4.46    c-2.79-1.904-5.713-3.595-8.751-5.061l-3.041-14.194c-0.988-4.611-5.063-7.905-9.778-7.905H413.56    c-4.716,0-8.791,3.294-9.778,7.905l-3.041,14.194c-3.038,1.466-5.961,3.156-8.751,5.061l-13.803-4.46    c-4.487-1.449-9.372,0.431-11.731,4.509l-16.679,28.837c-2.362,4.085-1.548,9.265,1.953,12.428l10.785,9.742    c-0.125,1.683-0.188,3.369-0.188,5.05c0,1.681,0.063,3.367,0.188,5.05l-10.785,9.742c-3.501,3.163-4.315,8.343-1.953,12.428    l16.679,28.838c2.359,4.08,7.247,5.957,11.731,4.509l13.803-4.461c2.791,1.905,5.714,3.596,8.751,5.062l3.041,14.193    c0.988,4.611,5.063,7.905,9.778,7.905h33.311c4.716,0,8.791-3.294,9.778-7.905l3.041-14.193c3.037-1.466,5.96-3.156,8.751-5.062    l13.803,4.461c4.486,1.448,9.372-0.431,11.731-4.509l16.679-28.838C513.015,451.868,512.201,446.688,508.7,443.525z     M480.707,467.783l-11.015-3.56c-3.218-1.039-6.741-0.382-9.369,1.744c-3.908,3.165-8.257,5.681-12.924,7.475    c-3.154,1.213-5.481,3.936-6.189,7.239l-2.424,11.316h-17.142l-2.424-11.316c-0.708-3.304-3.036-6.026-6.189-7.239    c-4.667-1.794-9.016-4.31-12.924-7.475c-2.627-2.128-6.152-2.784-9.369-1.744l-11.015,3.56l-8.583-14.841l8.593-7.762    c2.504-2.262,3.698-5.634,3.177-8.968c-0.386-2.466-0.582-4.982-0.582-7.48c0-2.498,0.196-5.015,0.582-7.48    c0.521-3.334-0.673-6.706-3.177-8.968l-8.593-7.762l8.583-14.841l11.015,3.56c3.217,1.04,6.742,0.383,9.368-1.744    c3.907-3.164,8.255-5.679,12.925-7.476c3.153-1.213,5.48-3.936,6.188-7.238l2.424-11.316h17.142l2.424,11.316    c0.708,3.303,3.035,6.025,6.188,7.238c4.67,1.797,9.019,4.312,12.925,7.476c2.627,2.127,6.15,2.782,9.368,1.744l11.015-3.56    l8.583,14.841l-8.593,7.762c-2.502,2.262-3.696,5.634-3.175,8.968c0.386,2.466,0.582,4.982,0.582,7.48    c0,2.498-0.196,5.015-0.582,7.48c-0.521,3.334,0.673,6.706,3.177,8.968l8.593,7.762L480.707,467.783z"></path>
	</g>
</g>
<g>
	<g>
		<path d="M511.211,74.778l-28.99-68.666c-1.563-3.703-5.193-6.11-9.213-6.11c-4.02,0-7.649,2.407-9.213,6.11l-28.989,68.667    c-2.148,5.088,0.235,10.954,5.324,13.102c1.27,0.536,2.588,0.79,3.885,0.79c3.899,0,7.605-2.296,9.217-6.113l3.627-8.591h32.299    l3.627,8.591c2.148,5.087,8.014,7.471,13.102,5.323C510.975,85.732,513.359,79.866,511.211,74.778z M465.302,53.967l7.706-18.254    l7.706,18.254H465.302z"></path>
	</g>
</g>
<g>
	<g>
		<path d="M107.76,0.002H24.239C10.874,0.001,0,10.874,0,24.24v73.53c0,13.365,10.874,24.239,24.239,24.239h83.522    c13.365,0,24.239-10.874,24.239-24.239V24.24C131.999,10.875,121.125,0.002,107.76,0.002z M111.999,97.769    c0,2.338-1.901,4.239-4.239,4.239H24.239c-2.337,0-4.239-1.901-4.239-4.239V24.24c0-2.337,1.901-4.238,4.239-4.238h83.522    c2.337,0,4.239,1.901,4.239,4.238V97.769z"></path>
	</g>
</g>
<g>
	<g>
		<path d="M83.641,42.564l-15.227-8.791c-6.667-3.849-14.628-3.85-21.295,0c-6.667,3.85-10.648,10.743-10.648,18.442v17.582    c0.001,7.699,3.982,14.592,10.649,18.442c3.333,1.925,6.99,2.887,10.647,2.887s7.314-0.962,10.647-2.887l15.227-8.791    c6.667-3.85,10.648-10.744,10.648-18.442C94.288,53.308,90.308,46.413,83.641,42.564z M73.642,62.127l-15.227,8.791    c-0.177,0.103-0.648,0.374-1.295,0c-0.648-0.374-0.648-0.917-0.648-1.122V52.214c0-0.205,0-0.748,0.648-1.122    c0.247-0.143,0.468-0.191,0.657-0.191c0.307,0,0.529,0.128,0.638,0.191l15.227,8.791c0.177,0.103,0.648,0.374,0.648,1.122    S73.819,62.025,73.642,62.127z"></path>
	</g>
</g>
<g>
	<g>
		<path d="M66.05,217.969h-7.217c-5.523,0-10,4.478-10,10s4.477,10,10,10h7.217c5.523,0,10-4.478,10-10    S71.573,217.969,66.05,217.969z"></path>
	</g>
</g>
<g>
	<g>
		<path d="M38.025,190.25c-5.523,0-10,4.478-10,10v6.362c0,5.522,4.477,10,10,10s10-4.478,10-10v-6.362    C48.025,194.728,43.548,190.25,38.025,190.25z"></path>
	</g>
</g>
<g>
	<g>
		<path d="M16.363,217.969H10c-5.523,0-10,4.478-10,10s4.477,10,10,10h6.363c5.523,0,10-4.478,10-10S21.886,217.969,16.363,217.969z    "></path>
	</g>
</g>
<g>
	<g>
		<path d="M38.025,239c-5.523,0-10,4.478-10,10v7.301c0,5.522,4.477,10,10,10s10-4.478,10-10V249    C48.025,243.478,43.548,239,38.025,239z"></path>
	</g>
</g>
<g>
</g>
<g>
</g>
<g>
</g>
<g>
</g>
<g>
</g>
<g>
</g>
<g>
</g>
<g>
</g>
<g>
</g>
<g>
</g>
<g>
</g>
<g>
</g>
<g>
</g>
<g>
</g>
<g>
</g>
</svg>