<svg xmlns="http://www.w3.org/2000/svg" xmlns:xlink="http://www.w3.org/1999/xlink" width="70" height="70" preserveAspectRatio="xMidYMid meet" viewBox="0 0 32 32" style="-ms-transform: rotate(360deg); -webkit-transform: rotate(360deg); transform: rotate(360deg);"><g fill="none"><path d="M6 8a3 3 0 0 1 3-3h16a3 3 0 0 1 3 3v10a3 3 0 0 1-3 3h-8v-2h8a1 1 0 0 0 1-1V8a1 1 0 0 0-1-1H9a1 1 0 0 0-1 1H7c-.345 0-.68.044-1 .126V8zm23 17H17v-2h12a1 1 0 1 1 0 2zM9 25a1 1 0 1 0 0-2a1 1 0 0 0 0 2zM3 13a3 3 0 0 1 3-3h6a3 3 0 0 1 3 3v12a3 3 0 0 1-3 3H6a3 3 0 0 1-3-3V13zm3-1a1 1 0 0 0-1 1v12a1 1 0 0 0 1 1h6a1 1 0 0 0 1-1V13a1 1 0 0 0-1-1H6z" fill="#FFFFFF"></path></g><rect x="0" y="0" width="32" height="32" fill="rgba(0, 0, 0, 0)"></rect></svg>