<svg xmlns="http://www.w3.org/2000/svg" id="Layer_1" height="512" viewBox="0 0 512 512" width="512"><path d="m501.39 472.759c-.005-.043-.011-.085-.018-.128l-47.362-328.716c-.532-3.69-3.695-6.43-7.424-6.43h-35.357v-38.902c0-54.359-44.247-98.583-98.635-98.583-21.173 0-41.183 6.536-58.127 18.934-16.299-11.899-36.366-18.934-58.05-18.934-20.438 0-40.049 6.197-56.713 17.922-7.931 5.58.703 17.852 8.631 12.268 14.124-9.938 30.751-15.19 48.083-15.19 46.116 0 83.634 37.495 83.634 83.583v77.134c-.586 5.755-3.769 8.783-9.552 9.082-4.771-.225-8.651-4.508-8.651-9.55v-76.666c0-35.662-29.799-65.398-65.432-65.398-36.078 0-65.431 29.337-65.431 65.398v76.666c0 5.042-3.881 9.325-8.651 9.55-5.782-.299-8.966-3.326-9.552-9.082v-77.134c0-14.649 3.846-29.06 11.12-41.673 4.845-8.4-8.15-15.895-12.994-7.494-8.587 14.889-13.126 31.891-13.126 49.167v38.901h-32.353c-3.729 0-6.892 2.74-7.423 6.431l-47.364 328.715c-2.788 20.445 14.091 39.37 34.59 39.37h421.551c20.682 0 37.204-18.716 34.606-39.241zm-105.161-374.176v38.901h-18.203v-38.901c0-36.061-29.353-65.398-65.432-65.398-12.291 0-24.334 3.486-34.675 9.937-3.459-5.062-7.375-9.788-11.692-14.115 13.721-9.183 29.614-14.007 46.367-14.007 46.116 0 83.635 37.495 83.635 83.583zm-70.813 38.901c-.003 0-.006 0-.01 0h-30.354v-38.901c0-15.191-3.458-29.589-9.625-42.453 8.066-5.15 17.514-7.945 27.167-7.945 27.809 0 50.432 22.609 50.432 50.398v38.901zm-78.567-38.901v38.901h-17.89v-38.901c0-11.025 2.189-21.927 6.373-32.023 7.192 8.713 11.517 19.872 11.517 32.023zm-50.431-50.398c9.987 0 19.296 2.928 27.138 7.953-6.291 13.187-9.597 27.727-9.597 42.446v38.901h-67.973v-38.902c.001-27.79 22.625-50.398 50.432-50.398zm285.286 442.079c-3.773 4.281-9.212 6.736-14.921 6.736h-92.513c4.73-6.82 7.243-16.072 5.923-24.37l-9.328-64.737c-.591-4.1-4.409-6.944-8.492-6.354-4.1.591-6.944 4.393-6.354 8.493l9.317 64.666c1.768 14.301-10.301 22.302-22.995 22.302h-297.108c-11.658 0-21.167-10.691-19.732-22.302l46.427-322.214h25.856v23.233c0 13.015 11.061 24.093 24.08 24.093 13.32 0 24.123-11.344 24.123-24.561v-22.765h100.862v22.765c0 13.152 10.079 23.928 22.946 24.533 13.431.626 25.257-10.553 25.257-24.065v-23.233h23.858l31.434 218.168c.591 4.1 4.402 6.944 8.493 6.354 4.1-.591 6.944-4.393 6.354-8.493l-31.126-216.028h106.024l46.427 322.217c.695 5.632-1.057 11.301-4.812 15.562z"></path></svg>